<svg width="31" height="31" viewBox="0 0 31 31" fill="none" xmlns="http://www.w3.org/2000/svg">
<path d="M30.8245 8.37678C30.7352 8.24654 30.6168 8.14024 30.4791 8.06683C30.3414 7.99342 30.1886 7.95505 30.0335 7.95495H9.37024L7.80611 2.41638C7.19273 0.23544 5.73518 0 5.13737 0H0.966842C0.43229 0 0 0.444385 0 0.992744C0 1.5411 0.432777 1.98546 0.966811 1.98546H5.13685C5.26878 1.98546 5.67137 1.98546 5.94597 2.9597L11.3267 23.265C11.4435 23.6934 11.8237 23.9892 12.2575 23.9892H25.4005C25.8084 23.9892 26.1725 23.7268 26.3103 23.3324L30.9429 9.28354C31.0495 8.97912 31.0051 8.64021 30.8245 8.37678ZM24.7201 22.0043H12.9913L9.91368 9.94094H28.6589L24.7201 22.0043ZM22.8025 26.0013C21.458 26.0013 20.3685 27.12 20.3685 28.5006C20.3685 29.8813 21.458 31 22.8025 31C24.1471 31 25.2366 29.8813 25.2366 28.5006C25.2366 27.12 24.1471 26.0013 22.8025 26.0013ZM14.0399 26.0013C12.6953 26.0013 11.6058 27.12 11.6058 28.5006C11.6058 29.8813 12.6953 31 14.0399 31C15.3845 31 16.474 29.8813 16.474 28.5006C16.474 27.12 15.3845 26.0013 14.0399 26.0013Z" fill="white"/>
</svg>
