<svg width="24" height="24" viewBox="0 0 24 24" fill="none" xmlns="http://www.w3.org/2000/svg">
<path d="M23.3602 3.62755C23.5603 3.43454 23.7198 3.20363 23.8297 2.9483C23.9395 2.69296 23.9974 2.41831 23.9999 2.14037C24.0025 1.86242 23.9496 1.58676 23.8445 1.32945C23.7394 1.07214 23.584 0.838353 23.3876 0.641717C23.1911 0.445081 22.9575 0.289538 22.7003 0.184165C22.4431 0.0787914 22.1675 0.025698 21.8895 0.0279814C21.6116 0.0302647 21.3369 0.0878794 21.0814 0.197464C20.826 0.307049 20.5949 0.466409 20.4017 0.666246L12.0119 9.05334L3.62476 0.666246C3.43312 0.460583 3.20202 0.295626 2.94524 0.181216C2.68847 0.0668051 2.41128 0.00528486 2.13021 0.00032577C1.84915 -0.00463332 1.56996 0.0470705 1.30931 0.152352C1.04866 0.257633 0.811885 0.414335 0.61311 0.61311C0.414335 0.811885 0.257633 1.04866 0.152352 1.30931C0.0470705 1.56996 -0.00463332 1.84915 0.00032577 2.13021C0.00528486 2.41128 0.0668051 2.68847 0.181216 2.94524C0.295626 3.20202 0.460583 3.43312 0.666246 3.62476L9.04776 12.0146L0.660665 20.4017C0.290907 20.7986 0.0896069 21.3234 0.0991752 21.8657C0.108743 22.408 0.328433 22.9254 0.711959 23.309C1.09549 23.6925 1.6129 23.9122 2.15521 23.9217C2.69751 23.9313 3.22236 23.73 3.61917 23.3603L12.0119 14.9732L20.3989 23.363C20.7958 23.7328 21.3206 23.9341 21.8629 23.9245C22.4052 23.915 22.9226 23.6953 23.3062 23.3117C23.6897 22.9282 23.9094 22.4108 23.9189 21.8685C23.9285 21.3262 23.7272 20.8013 23.3575 20.4045L14.9759 12.0146L23.3602 3.62755Z" fill="#1D2020"/>
</svg>
