<svg width="24" height="24" viewBox="0 0 24 24" fill="none" xmlns="http://www.w3.org/2000/svg">
<path d="M23.3602 3.63894C23.5603 3.44533 23.7198 3.2137 23.8297 2.95756C23.9395 2.70142 23.9974 2.4259 23.9999 2.14709C24.0025 1.86827 23.9496 1.59174 23.8445 1.33363C23.7394 1.07551 23.584 0.840986 23.3876 0.643733C23.1911 0.446479 22.9575 0.290448 22.7003 0.184743C22.4431 0.0790388 22.1675 0.0257787 21.8895 0.0280692C21.6116 0.0303597 21.3369 0.0881554 21.0814 0.198084C20.826 0.308014 20.5949 0.467874 20.4017 0.668339L12.0119 9.08178L3.62476 0.668339C3.43312 0.46203 3.20202 0.296555 2.94524 0.181785C2.68847 0.067015 2.41128 0.00530146 2.13021 0.000326794C1.84915 -0.00464787 1.56996 0.0472183 1.30931 0.15283C1.04866 0.258442 0.811885 0.415636 0.61311 0.615036C0.414335 0.814435 0.257633 1.05195 0.152352 1.31342C0.0470705 1.57489 -0.00463332 1.85496 0.00032577 2.1369C0.00528486 2.41885 0.0668051 2.69691 0.181216 2.95449C0.295626 3.21207 0.460583 3.4439 0.666246 3.63614L9.04776 12.0524L0.660665 20.4658C0.290907 20.8639 0.0896069 21.3904 0.0991752 21.9344C0.108743 22.4784 0.328433 22.9974 0.711959 23.3822C1.09549 23.7669 1.6129 23.9873 2.15521 23.9969C2.69751 24.0065 3.22236 23.8045 3.61917 23.4336L12.0119 15.0202L20.3989 23.4364C20.7958 23.8073 21.3206 24.0093 21.8629 23.9997C22.4052 23.9901 22.9226 23.7697 23.3062 23.385C23.6897 23.0002 23.9094 22.4812 23.9189 21.9372C23.9285 21.3932 23.7272 20.8667 23.3575 20.4686L14.9759 12.0524L23.3602 3.63894Z" fill="url(#paint0_linear_485_850)"/>
<defs>
<linearGradient id="paint0_linear_485_850" x1="0" y1="12" x2="24" y2="12" gradientUnits="userSpaceOnUse">
<stop offset="0.22" stop-color="white"/>
<stop offset="1" stop-color="#FFC722"/>
</linearGradient>
</defs>
</svg>
