<svg width="30" height="23" viewBox="0 0 30 23" fill="none" xmlns="http://www.w3.org/2000/svg">
<path d="M2.8125 0.150024C1.25977 0.150024 0 1.40979 0 2.96252C0 3.84729 0.416016 4.67932 1.125 5.21252L13.875 14.775C14.543 15.2731 15.457 15.2731 16.125 14.775L28.875 5.21252C29.584 4.67932 30 3.84729 30 2.96252C30 1.40979 28.7402 0.150024 27.1875 0.150024H2.8125ZM0 6.71252V18.9C0 20.9684 1.68164 22.65 3.75 22.65H26.25C28.3184 22.65 30 20.9684 30 18.9V6.71252L17.25 16.275C15.9141 17.277 14.0859 17.277 12.75 16.275L0 6.71252Z" fill="white"/>
</svg>
