<svg width="32" height="32" viewBox="0 0 32 32" fill="none" xmlns="http://www.w3.org/2000/svg">
<path d="M3.8125 4.75C2.25977 4.75 1 6.00977 1 7.5625C1 8.44727 1.41602 9.2793 2.125 9.8125L14.875 19.375C15.543 19.873 16.457 19.873 17.125 19.375L29.875 9.8125C30.584 9.2793 31 8.44727 31 7.5625C31 6.00977 29.7402 4.75 28.1875 4.75H3.8125ZM1 11.3125V23.5C1 25.5684 2.68164 27.25 4.75 27.25H27.25C29.3184 27.25 31 25.5684 31 23.5V11.3125L18.25 20.875C16.9141 21.877 15.0859 21.877 13.75 20.875L1 11.3125Z" fill="black"/>
</svg>
