<svg width="28" height="26" viewBox="0 0 28 26" fill="none" xmlns="http://www.w3.org/2000/svg">
<path d="M26.3332 13.0002H9.85984M4.04517 13.0002H1.6665M4.04517 13.0002C4.04517 12.2293 4.35141 11.49 4.89651 10.9449C5.44162 10.3998 6.18094 10.0935 6.95184 10.0935C7.72273 10.0935 8.46206 10.3998 9.00716 10.9449C9.55227 11.49 9.8585 12.2293 9.8585 13.0002C9.8585 13.7711 9.55227 14.5104 9.00716 15.0555C8.46206 15.6006 7.72273 15.9068 6.95184 15.9068C6.18094 15.9068 5.44162 15.6006 4.89651 15.0555C4.35141 14.5104 4.04517 13.7711 4.04517 13.0002ZM26.3332 21.8095H18.6692M18.6692 21.8095C18.6692 22.5806 18.3622 23.3207 17.817 23.866C17.2717 24.4112 16.5322 24.7175 15.7612 24.7175C14.9903 24.7175 14.251 24.4099 13.7058 23.8648C13.1607 23.3197 12.8545 22.5804 12.8545 21.8095M18.6692 21.8095C18.6692 21.0384 18.3622 20.2996 17.817 19.7544C17.2717 19.2092 16.5322 18.9028 15.7612 18.9028C14.9903 18.9028 14.251 19.2091 13.7058 19.7542C13.1607 20.2993 12.8545 21.0386 12.8545 21.8095M12.8545 21.8095H1.6665M26.3332 4.19085H22.1932M16.3785 4.19085H1.6665M16.3785 4.19085C16.3785 3.41995 16.6847 2.68063 17.2298 2.13552C17.775 1.59042 18.5143 1.28418 19.2852 1.28418C19.6669 1.28418 20.0449 1.35936 20.3975 1.50544C20.7502 1.65151 21.0706 1.86561 21.3405 2.13552C21.6104 2.40543 21.8245 2.72586 21.9706 3.07851C22.1167 3.43117 22.1918 3.80914 22.1918 4.19085C22.1918 4.57256 22.1167 4.95053 21.9706 5.30318C21.8245 5.65583 21.6104 5.97626 21.3405 6.24617C21.0706 6.51608 20.7502 6.73018 20.3975 6.87626C20.0449 7.02233 19.6669 7.09751 19.2852 7.09751C18.5143 7.09751 17.775 6.79128 17.2298 6.24617C16.6847 5.70106 16.3785 4.96174 16.3785 4.19085Z" stroke="black" stroke-width="2" stroke-miterlimit="10" stroke-linecap="round"/>
</svg>
