<svg width="28" height="28" viewBox="0 0 28 28" fill="none" xmlns="http://www.w3.org/2000/svg">
<path d="M12.4431 3.9277C14.1279 3.92616 15.7753 4.42434 17.1769 5.35923C18.5785 6.29412 19.6713 7.6237 20.3171 9.17978C20.9629 10.7359 21.1326 12.4485 20.8049 14.1011C20.4772 15.7537 19.6666 17.2719 18.4759 18.4638C17.2851 19.6557 15.7676 20.4676 14.1153 20.7968C12.463 21.1261 10.7502 20.9579 9.19354 20.3135C7.63687 19.6691 6.30628 18.5775 5.37012 17.1768C4.43395 15.7761 3.93426 14.1291 3.93426 12.4444C3.94447 10.1901 4.84397 8.03095 6.43727 6.4362C8.03057 4.84144 10.1889 3.93997 12.4431 3.9277ZM12.4431 2.33325C10.4434 2.33325 8.48848 2.92626 6.82571 4.03728C5.16295 5.1483 3.86698 6.72744 3.1017 8.57501C2.33641 10.4226 2.13618 12.4556 2.52632 14.4169C2.91646 16.3783 3.87945 18.1799 5.29351 19.594C6.70758 21.0081 8.5092 21.9711 10.4706 22.3612C12.4319 22.7513 14.4649 22.5511 16.3125 21.7858C18.1601 21.0205 19.7392 19.7246 20.8502 18.0618C21.9613 16.399 22.5543 14.4442 22.5543 12.4444C22.5543 9.76273 21.489 7.19093 19.5928 5.29473C17.6966 3.39853 15.1248 2.33325 12.4431 2.33325Z" fill="white"/>
<path d="M26.9987 25.9139L21.3173 20.2222L20.2227 21.3037L25.904 26.9954C25.9754 27.067 26.0602 27.1238 26.1537 27.1627C26.2471 27.2016 26.3473 27.2218 26.4486 27.2222C26.5499 27.2225 26.6503 27.203 26.744 27.1648C26.8377 27.1265 26.9229 27.0703 26.9948 26.9993C27.0667 26.9283 27.1238 26.8439 27.1629 26.7509C27.202 26.6579 27.2223 26.5582 27.2227 26.4574C27.223 26.3566 27.2034 26.2567 27.165 26.1635C27.1266 26.0702 27.07 25.9854 26.9987 25.9139Z" fill="white"/>
</svg>
