<svg width="20" height="20" viewBox="0 0 20 20" fill="none" xmlns="http://www.w3.org/2000/svg">
<path d="M17.7502 8.00032C17.7502 7.8014 17.6711 7.61064 17.5305 7.46999C17.3898 7.32933 17.1991 7.25032 17.0002 7.25032C16.8012 7.25032 16.6105 7.32933 16.4698 7.46999C16.3292 7.61064 16.2502 7.8014 16.2502 8.00032H17.7502ZM3.75015 8.00032C3.75015 7.8014 3.67114 7.61064 3.53048 7.46999C3.38983 7.32933 3.19907 7.25032 3.00015 7.25032C2.80124 7.25032 2.61048 7.32933 2.46982 7.46999C2.32917 7.61064 2.25015 7.8014 2.25015 8.00032H3.75015ZM18.4702 10.5303C18.5388 10.604 18.6216 10.6631 18.7136 10.7041C18.8056 10.7451 18.9049 10.7671 19.0056 10.7689C19.1063 10.7707 19.2064 10.7522 19.2998 10.7144C19.3931 10.6767 19.478 10.6206 19.5492 10.5494C19.6204 10.4781 19.6766 10.3933 19.7143 10.2999C19.752 10.2065 19.7705 10.1065 19.7687 10.0058C19.767 9.90509 19.7449 9.80578 19.7039 9.71378C19.6629 9.62178 19.6038 9.53898 19.5302 9.47032L18.4702 10.5303ZM10.0002 1.00032L10.5302 0.470317C10.3895 0.329866 10.1989 0.250977 10.0002 0.250977C9.8014 0.250977 9.61078 0.329866 9.47015 0.470317L10.0002 1.00032ZM0.470154 9.47032C0.396467 9.53898 0.337365 9.62178 0.296373 9.71378C0.255381 9.80578 0.233339 9.90509 0.231562 10.0058C0.229785 10.1065 0.24831 10.2065 0.286031 10.2999C0.323752 10.3933 0.379897 10.4781 0.451115 10.5494C0.522334 10.6206 0.607168 10.6767 0.700556 10.7144C0.793944 10.7522 0.893973 10.7707 0.994676 10.7689C1.09538 10.7671 1.19469 10.7451 1.28669 10.7041C1.37869 10.6631 1.46149 10.604 1.53015 10.5303L0.470154 9.47032ZM5.00015 19.7503H15.0002V18.2503H5.00015V19.7503ZM17.7502 17.0003V8.00032H16.2502V17.0003H17.7502ZM3.75015 17.0003V8.00032H2.25015V17.0003H3.75015ZM19.5302 9.47032L10.5302 0.470317L9.47015 1.53032L18.4702 10.5303L19.5302 9.47032ZM9.47015 0.470317L0.470154 9.47032L1.53015 10.5303L10.5302 1.53032L9.47015 0.470317ZM15.0002 19.7503C15.7295 19.7503 16.429 19.4606 16.9447 18.9449C17.4604 18.4291 17.7502 17.7297 17.7502 17.0003H16.2502C16.2502 17.6903 15.6902 18.2503 15.0002 18.2503V19.7503ZM5.00015 18.2503C4.31015 18.2503 3.75015 17.6903 3.75015 17.0003H2.25015C2.25015 17.7297 2.53989 18.4291 3.05561 18.9449C3.57133 19.4606 4.27081 19.7503 5.00015 19.7503V18.2503Z" fill="black"/>
</svg>
