<svg width="30" height="30" viewBox="0 0 30 30" fill="none" xmlns="http://www.w3.org/2000/svg">
<path d="M3.53684 14.6277C2.91254 13.9313 2.4179 13.1023 2.08176 12.1891C1.74562 11.2759 1.5747 10.2967 1.57895 9.30853C1.57895 7.31001 2.28595 5.39333 3.54442 3.98016C4.80288 2.56699 6.50973 1.77308 8.28947 1.77308C10.7842 1.77308 12.9632 3.2979 14.1158 5.5674H15.8842C16.4702 4.41325 17.3181 3.45409 18.3415 2.78758C19.365 2.12107 20.5274 1.77102 21.7105 1.77308C23.4903 1.77308 25.1971 2.56699 26.4556 3.98016C27.7141 5.39333 28.4211 7.31001 28.4211 9.30853C28.4211 11.383 27.6316 13.2979 26.4632 14.6277L15 27.4823L3.53684 14.6277ZM27.5684 15.8865C29.0684 14.1844 30 11.8795 30 9.30853C30 6.83977 29.1266 4.47211 27.5721 2.72643C26.0175 0.980746 23.909 3.20071e-05 21.7105 3.20071e-05C18.9474 3.20071e-05 16.5 1.50712 15 3.84755C14.2344 2.6534 13.2262 1.68144 12.0592 1.01231C10.8921 0.343185 9.59984 -0.00383742 8.28947 3.20071e-05C6.09097 3.20071e-05 3.98251 0.980746 2.42793 2.72643C0.873353 4.47211 0 6.83977 0 9.30853C0 11.8795 0.931579 14.1844 2.43158 15.8865L15 30L27.5684 15.8865Z" fill="white"/>
</svg>
