<svg width="32" height="32" viewBox="0 0 32 32" fill="none" xmlns="http://www.w3.org/2000/svg">
<path d="M26.0013 29.3333C26.5317 29.3333 27.0404 29.1226 27.4155 28.7475C27.7906 28.3725 28.0013 27.8638 28.0013 27.3333V22.6667C28.0013 22.1362 27.7906 21.6275 27.4155 21.2525C27.0404 20.8774 26.5317 20.6667 26.0013 20.6667C24.4413 20.6667 22.908 20.4267 21.4413 19.9333C21.0906 19.8227 20.7164 19.8101 20.3591 19.8971C20.0018 19.9841 19.6752 20.1672 19.4146 20.4267L17.4946 22.3467C14.1776 20.5366 11.4514 17.8103 9.6413 14.4933L11.548 12.5867C12.0946 12.0667 12.2946 11.2933 12.0546 10.5467C11.5746 9.09333 11.3346 7.56 11.3346 6C11.3346 5.46957 11.1239 4.96086 10.7488 4.58579C10.3738 4.21071 9.86507 4 9.33463 4H4.66797C4.13754 4 3.62883 4.21071 3.25376 4.58579C2.87868 4.96086 2.66797 5.46957 2.66797 6C2.66797 18.8667 13.1346 29.3333 26.0013 29.3333ZM4.66797 5.33333H9.33463C9.51145 5.33333 9.68102 5.40357 9.80604 5.5286C9.93106 5.65362 10.0013 5.82319 10.0013 6C10.0013 7.70667 10.268 9.37333 10.788 10.96C10.8546 11.1467 10.8413 11.4133 10.628 11.6267L8.0013 14.24C10.2013 18.5467 13.428 21.7733 17.748 24L20.348 21.3733C20.5346 21.1867 20.788 21.1333 21.028 21.2C22.628 21.7333 24.2946 22 26.0013 22C26.1781 22 26.3477 22.0702 26.4727 22.1953C26.5977 22.3203 26.668 22.4899 26.668 22.6667V27.3333C26.668 27.5101 26.5977 27.6797 26.4727 27.8047C26.3477 27.9298 26.1781 28 26.0013 28C13.868 28 4.0013 18.1333 4.0013 6C4.0013 5.82319 4.07154 5.65362 4.19656 5.5286C4.32159 5.40357 4.49116 5.33333 4.66797 5.33333Z" fill="black"/>
</svg>
