<svg width="26" height="26" viewBox="0 0 26 26" fill="none" xmlns="http://www.w3.org/2000/svg">
<path d="M24.0001 25.3333C24.5305 25.3333 25.0392 25.1226 25.4143 24.7475C25.7894 24.3725 26.0001 23.8638 26.0001 23.3333V18.6667C26.0001 18.1362 25.7894 17.6275 25.4143 17.2525C25.0392 16.8774 24.5305 16.6667 24.0001 16.6667C22.4401 16.6667 20.9067 16.4267 19.4401 15.9333C19.0894 15.8227 18.7152 15.8101 18.3579 15.8971C18.0006 15.9841 17.674 16.1672 17.4134 16.4267L15.4934 18.3467C12.1764 16.5366 9.45019 13.8103 7.64008 10.4933L9.54675 8.58667C10.0934 8.06667 10.2934 7.29333 10.0534 6.54667C9.57341 5.09333 9.33341 3.56 9.33341 2C9.33341 1.46957 9.1227 0.960859 8.74763 0.585786C8.37256 0.210714 7.86385 0 7.33341 0H2.66675C2.13631 0 1.62761 0.210714 1.25253 0.585786C0.877462 0.960859 0.666748 1.46957 0.666748 2C0.666748 14.8667 11.1334 25.3333 24.0001 25.3333ZM2.66675 1.33333H7.33341C7.51023 1.33333 7.67979 1.40357 7.80482 1.5286C7.92984 1.65362 8.00008 1.82319 8.00008 2C8.00008 3.70667 8.26675 5.37333 8.78675 6.96C8.85341 7.14667 8.84008 7.41333 8.62675 7.62667L6.00008 10.24C8.20008 14.5467 11.4267 17.7733 15.7467 20L18.3467 17.3733C18.5334 17.1867 18.7867 17.1333 19.0267 17.2C20.6267 17.7333 22.2934 18 24.0001 18C24.1769 18 24.3465 18.0702 24.4715 18.1953C24.5965 18.3203 24.6667 18.4899 24.6667 18.6667V23.3333C24.6667 23.5101 24.5965 23.6797 24.4715 23.8047C24.3465 23.9298 24.1769 24 24.0001 24C11.8667 24 2.00008 14.1333 2.00008 2C2.00008 1.82319 2.07032 1.65362 2.19534 1.5286C2.32037 1.40357 2.48994 1.33333 2.66675 1.33333Z" fill="white"/>
</svg>
