<svg width="30" height="30" viewBox="0 0 30 30" fill="none" xmlns="http://www.w3.org/2000/svg">
<path d="M14.7 0C6.58139 0 0 6.58139 0 14.7C0 22.8186 6.58139 29.4 14.7 29.4C22.8186 29.4 29.4 22.8186 29.4 14.7C29.4 6.58139 22.8186 0 14.7 0ZM21.5137 9.99719C21.2925 12.3216 20.3353 17.9623 19.8481 20.5658C19.642 21.6673 19.2363 22.0367 18.8435 22.0728C17.99 22.1514 17.3416 21.5087 16.5148 20.9667C15.221 20.1186 14.4901 19.5907 13.2342 18.7631C11.7829 17.8067 12.7237 17.2812 13.5508 16.4217C13.7673 16.1969 17.5286 12.7758 17.6014 12.4654C17.6104 12.4266 17.6191 12.2817 17.5329 12.2056C17.4468 12.1295 17.3202 12.1552 17.2286 12.1759C17.0988 12.2054 15.032 13.5715 11.028 16.2743C10.4414 16.6771 9.91003 16.8734 9.4339 16.8631C8.90903 16.8518 7.89941 16.5664 7.14882 16.3223C6.22824 16.0231 5.49656 15.8649 5.56028 15.3567C5.59347 15.0919 5.95801 14.8213 6.65388 14.5446C10.9393 12.6776 13.7968 11.4467 15.2266 10.8519C19.3089 9.15384 20.1572 8.85888 20.7101 8.84904C20.8317 8.84703 21.1036 8.87714 21.2797 9.02005C21.3969 9.12185 21.4715 9.26392 21.489 9.41814C21.5188 9.60962 21.5271 9.80385 21.5137 9.99719Z" fill="white"/>
</svg>
