<svg width="30" height="31" viewBox="0 0 30 31" fill="none" xmlns="http://www.w3.org/2000/svg">
<path d="M14.7 0.800049C6.58139 0.800049 0 7.38144 0 15.5C0 23.6187 6.58139 30.2001 14.7 30.2001C22.8186 30.2001 29.4 23.6187 29.4 15.5C29.4 7.38144 22.8186 0.800049 14.7 0.800049ZM21.5137 10.7972C21.2925 13.1217 20.3353 18.7624 19.8481 21.3658C19.642 22.4674 19.2363 22.8368 18.8435 22.8729C17.99 22.9515 17.3416 22.3088 16.5148 21.7668C15.221 20.9187 14.4901 20.3907 13.2342 19.5631C11.7829 18.6067 12.7237 18.0813 13.5508 17.2218C13.7673 16.997 17.5286 13.5758 17.6014 13.2655C17.6104 13.2266 17.6191 13.0817 17.5329 13.0056C17.4468 12.9295 17.3202 12.9553 17.2286 12.976C17.0988 13.0055 15.032 14.3716 11.028 17.0743C10.4414 17.4771 9.91003 17.6734 9.4339 17.6631C8.90903 17.6518 7.89941 17.3664 7.14882 17.1224C6.22824 16.8232 5.49656 16.665 5.56028 16.1567C5.59347 15.892 5.95801 15.6213 6.65388 15.3447C10.9393 13.4776 13.7968 12.2467 15.2266 11.6519C19.3089 9.95388 20.1572 9.65893 20.7101 9.64909C20.8317 9.64708 21.1036 9.67719 21.2797 9.8201C21.3969 9.9219 21.4715 10.064 21.489 10.2182C21.5188 10.4097 21.5271 10.6039 21.5137 10.7972Z" fill="black"/>
</svg>
