<svg width="32" height="32" viewBox="0 0 32 32" fill="none" xmlns="http://www.w3.org/2000/svg">
<path d="M26.7954 4.16287C26.0662 3.49112 23.1151 1.34955 16.5354 1.32085C16.5354 1.32085 8.77866 0.855791 5.00078 4.32364C2.8994 6.42501 2.15875 9.50818 2.07837 13.3263C1.99799 17.1443 1.90038 24.2982 8.79588 26.2388H8.80162L8.79588 29.2014C8.79588 29.2014 8.74995 30.4014 9.54227 30.6425C10.4954 30.9411 11.058 30.0282 11.9709 29.0464C12.4704 28.5067 13.1594 27.7144 13.6819 27.1115C18.4014 27.5077 22.0242 26.6005 22.4376 26.4685C23.3907 26.1584 28.7819 25.4695 29.6546 18.3156C30.5618 10.9321 29.2183 6.26999 26.7954 4.16287ZM27.5934 17.7759C26.8528 23.747 22.4835 24.126 21.6797 24.3843C21.3352 24.4934 18.1487 25.2857 14.1469 25.0274C14.1469 25.0274 11.1614 28.6273 10.2313 29.5631C9.92695 29.8674 9.59395 29.8387 9.59969 29.2359C9.59969 28.8397 9.62266 24.3154 9.62266 24.3154C9.61692 24.3154 9.61692 24.3154 9.62266 24.3154C3.77784 22.6963 4.12233 16.6046 4.18549 13.4181C4.24864 10.2316 4.8515 7.61924 6.63135 5.86235C9.82935 2.96291 16.4148 3.39352 16.4148 3.39352C21.9783 3.41648 24.6423 5.09299 25.2624 5.65566C27.3121 7.41254 28.3571 11.6153 27.5934 17.7759ZM19.6128 13.1368C19.6358 13.6306 18.8951 13.665 18.8722 13.1712C18.809 11.9081 18.2176 11.2938 17.0004 11.2249C16.5067 11.1962 16.5526 10.4555 17.0406 10.4842C18.6425 10.5704 19.5324 11.489 19.6128 13.1368ZM20.7783 13.7856C20.8357 11.3512 19.3143 9.44503 16.4263 9.23259C15.9383 9.19814 15.9899 8.45749 16.478 8.49194C19.808 8.73308 21.5821 11.0239 21.519 13.8028C21.5132 14.2966 20.7668 14.2736 20.7783 13.7856ZM23.4768 14.5549C23.4826 15.0487 22.7362 15.0544 22.7362 14.5607C22.7017 9.88137 19.5841 7.33216 15.8005 7.30346C15.3125 7.29772 15.3125 6.56281 15.8005 6.56281C20.0319 6.59152 23.4366 9.51392 23.4768 14.5549ZM22.828 20.1873V20.1988C22.208 21.2897 21.0482 22.4954 19.8539 22.1107L19.8425 22.0935C18.631 21.7547 15.7775 20.2849 13.9747 18.8495C13.0446 18.1146 12.1948 17.2477 11.5403 16.4152C10.9489 15.6745 10.3518 14.7961 9.77193 13.7396C8.549 11.5292 8.27915 10.5416 8.27915 10.5416C7.89448 9.34742 9.09444 8.18764 10.1911 7.56756H10.2025C10.7308 7.29197 11.236 7.38384 11.5748 7.79148C11.5748 7.79148 12.2867 8.64122 12.591 9.06035C12.8781 9.45077 13.2627 10.0766 13.4637 10.4268C13.8139 11.0526 13.5957 11.6899 13.2513 11.954L12.5623 12.5052C12.2121 12.7866 12.258 13.309 12.258 13.309C12.258 13.309 13.28 17.173 17.098 18.1491C17.098 18.1491 17.6205 18.195 17.9018 17.8448L18.453 17.1558C18.7171 16.8113 19.3544 16.5932 19.9803 16.9434C20.8243 17.4199 21.8979 18.1606 22.6099 18.8323C23.0118 19.1596 23.1036 19.6591 22.828 20.1873Z" fill="black"/>
</svg>
