<svg width="28" height="30" viewBox="0 0 28 30" fill="none" xmlns="http://www.w3.org/2000/svg">
<path d="M24.7954 3.16287C24.0662 2.49112 21.1151 0.349555 14.5354 0.32085C14.5354 0.32085 6.77866 -0.144209 3.00078 3.32364C0.8994 5.42501 0.158752 8.50818 0.0783669 12.3263C-0.00201198 16.1443 -0.0996175 23.2982 6.79588 25.2388H6.80162L6.79588 28.2014C6.79588 28.2014 6.74995 29.4014 7.54227 29.6425C8.49536 29.9411 9.05802 29.0282 9.97091 28.0464C10.4704 27.5067 11.1594 26.7144 11.6819 26.1115C16.4014 26.5077 20.0242 25.6005 20.4376 25.4685C21.3907 25.1584 26.7819 24.4695 27.6546 17.3156C28.5618 9.93206 27.2183 5.26999 24.7954 3.16287ZM25.5934 16.7759C24.8528 22.747 20.4835 23.126 19.6797 23.3843C19.3352 23.4934 16.1487 24.2857 12.1469 24.0274C12.1469 24.0274 9.16137 27.6273 8.23125 28.5631C7.92695 28.8674 7.59395 28.8387 7.59969 28.2359C7.59969 27.8397 7.62266 23.3154 7.62266 23.3154C7.61692 23.3154 7.61692 23.3154 7.62266 23.3154C1.77784 21.6963 2.12233 15.6046 2.18549 12.4181C2.24864 9.2316 2.8515 6.61924 4.63135 4.86235C7.82935 1.96291 14.4148 2.39352 14.4148 2.39352C19.9783 2.41648 22.6423 4.09299 23.2624 4.65566C25.3121 6.41254 26.3571 10.6153 25.5934 16.7759ZM17.6128 12.1368C17.6358 12.6306 16.8951 12.665 16.8722 12.1712C16.809 10.9081 16.2176 10.2938 15.0004 10.2249C14.5067 10.1962 14.5526 9.45552 15.0406 9.48423C16.6425 9.57035 17.5324 10.489 17.6128 12.1368ZM18.7783 12.7856C18.8357 10.3512 17.3143 8.44503 14.4263 8.23259C13.9383 8.19814 13.9899 7.45749 14.478 7.49194C17.808 7.73308 19.5821 10.0239 19.519 12.8028C19.5132 13.2966 18.7668 13.2736 18.7783 12.7856ZM21.4768 13.5549C21.4826 14.0487 20.7362 14.0544 20.7362 13.5607C20.7017 8.88137 17.5841 6.33216 13.8005 6.30346C13.3125 6.29772 13.3125 5.56281 13.8005 5.56281C18.0319 5.59152 21.4366 8.51392 21.4768 13.5549ZM20.828 19.1873V19.1988C20.208 20.2897 19.0482 21.4954 17.8539 21.1107L17.8425 21.0935C16.631 20.7547 13.7775 19.2849 11.9747 17.8495C11.0446 17.1146 10.1948 16.2477 9.5403 15.4152C8.94893 14.6745 8.35182 13.7961 7.77193 12.7396C6.549 10.5292 6.27915 9.54164 6.27915 9.54164C5.89448 8.34742 7.09444 7.18764 8.19106 6.56756H8.20254C8.73076 6.29197 9.23601 6.38384 9.57476 6.79148C9.57476 6.79148 10.2867 7.64122 10.591 8.06035C10.8781 8.45077 11.2627 9.07658 11.4637 9.42682C11.8139 10.0526 11.5957 10.6899 11.2513 10.954L10.5623 11.5052C10.2121 11.7866 10.258 12.309 10.258 12.309C10.258 12.309 11.28 16.173 15.098 17.1491C15.098 17.1491 15.6205 17.195 15.9018 16.8448L16.453 16.1558C16.7171 15.8113 17.3544 15.5932 17.9803 15.9434C18.8243 16.4199 19.8979 17.1606 20.6099 17.8323C21.0118 18.1596 21.1036 18.6591 20.828 19.1873Z" fill="white"/>
</svg>
