<svg width="250" height="111" viewBox="0 0 250 111" fill="none" xmlns="http://www.w3.org/2000/svg">
<path d="M128.783 45.6304C129.634 43.7551 130.486 41.5049 131.337 39.6296L125.802 30.2535C124.525 28.0032 124.951 25.0029 127.08 23.1277L137.298 14.1266C139.426 12.2513 142.832 11.8763 145.387 13.0014L156.456 18.2521C158.585 17.1269 160.714 16.3768 163.268 16.0018L167.1 5.50054C167.526 2.87522 170.08 1 173.06 1H187.536C190.516 1 193.07 2.87522 193.922 5.12549L197.754 15.6268L204.14 17.877L215.209 12.6264C217.764 11.5013 221.17 11.8763 223.298 13.7515L233.516 22.7526C235.645 24.6278 236.071 27.6282 234.794 29.8785L228.833 39.6296L231.388 45.2553L243.308 48.6307C246.289 49.3808 248.417 52.0061 248.417 54.6314V67.383C248.417 70.0083 246.289 72.2585 243.734 73.0086L231.388 76.384L228.833 82.0097L234.794 91.7609C236.071 94.0112 235.645 97.0115 233.516 98.8867L223.298 107.888C221.17 109.763 217.764 110.138 215.209 109.013L204.14 103.762M204.14 95.1363L218.189 101.887L226.704 94.3862L219.041 82.0097L220.318 80.1345L224.15 72.2585L224.576 70.3833L239.902 66.2578V55.7566L224.576 51.6311L224.15 49.7558C223.298 47.1305 222.021 44.5052 220.318 41.8799L219.041 40.0047L226.704 27.6282L218.189 20.1273L204.14 26.8781L202.011 25.753C199.031 24.2528 196.051 23.1277 193.07 22.3776L190.942 21.6275L186.258 8.5009H174.338L169.654 21.6275L167.526 22.3776C164.12 23.1277 161.139 24.2528 158.159 25.753L156.03 26.8781L142.407 20.1273L133.892 27.6282L141.129 40.0047L139.852 41.8799" stroke="#FFC722" stroke-width="2"/>
<path d="M15.4844 79.085L0 84.7354L17.1266 80.4976L30.2649 76.9661L38.1244 75.3181L47.6261 73.4346L48.5231 73.237C54.3207 71.9599 60.2398 71.3157 66.1764 71.3157L74.9415 72.3752L81.9967 73.4346L94.882 74.7295L107.591 75.3181H113.727L124.026 74.1574L133.494 72.3752L149.213 69.4323L168.92 64.7236L156.955 66.3717L137.248 68.2551L113.727 70.374H101.587L81.9967 69.6677L74.9415 68.88L66.1764 68.2551H64.6049C57.4921 68.2551 50.3996 69.014 43.4478 70.5189L39.7666 71.3157L33.1975 73.4346L15.4844 79.085Z" fill="#FFC722"/>
<path d="M9.3992 86.1674L8.67969 86.6187L22.3599 84.6943C26.0935 84.1691 29.18 81.5189 30.2639 77.9077L24.9852 79.438L19.7064 80.9683C16.1168 82.3779 12.6662 84.1184 9.3992 86.1674Z" fill="#FFC722"/>
<path d="M94.2243 58.545L72.0254 67.5489L84.8018 63.1628L98.0673 59.5442L110.44 56.7858L117.218 55.9901C122.43 55.3783 127.681 55.1776 132.925 55.39L140.241 55.6864L145.259 56.3801C150.39 57.0893 155.457 58.196 160.416 59.6902L165.401 61.1922L185.812 66.3717L202.704 70.6095H194.493L187.792 69.9795L178.539 69.1969L178.274 69.1614C174.702 68.6829 171.081 68.6948 167.512 69.1969L160.239 70.6095L149.447 72.4929L132.79 74.8472H142.149C149.339 74.8472 156.507 74.0577 163.524 72.4929C166.986 71.8448 170.5 71.5187 174.022 71.5187H174.206L184.404 72.4929L193.767 74.4104C195.185 74.7009 196.63 74.8472 198.078 74.8472C201.127 74.8472 204.141 74.1982 206.92 72.9433L208.007 72.4527C210.709 71.2322 213.193 69.5751 215.357 67.5479L219.127 64.0174L216.592 64.971C212.092 66.6648 207.25 67.2524 202.474 66.6845C200.724 66.4764 198.995 66.1144 197.308 65.6029L182.762 61.1922L161.647 55.0709L159.808 54.5736C154.66 53.1809 149.409 52.2023 144.105 51.6471L140.679 51.2885L134.763 51.0686H129.942L125.048 51.2885L119.652 51.8848L118.465 52.0043C115.311 52.3217 112.188 52.8912 109.125 53.7073L104.167 55.0709L94.2243 58.545Z" fill="#FFC722"/>
<path d="M123.587 108.043L155.312 104.512L118.985 103.843L99.2636 105.689H87.4307H64.9863L78.2274 107.361L90.26 108.796C96.9755 109.597 103.755 109.714 110.494 109.146L123.587 108.043Z" fill="#FFC722"/>
<path d="M202.872 59.2631C203.531 49.641 195.292 42.3164 191.629 41.1468C188.495 40.1464 176.726 36.9696 168.401 44.9898" stroke="#FFC722" stroke-width="2"/>
<path d="M71.032 86.384L76.96 79.736H79.672L74.296 85.568L77.944 95H72.712L70.6 88.304L69.184 95H64L67.24 79.76H72.448L71.032 86.384ZM84.7216 79.76H89.9296L87.0976 92.984H91.9696L91.5616 95H81.4816L84.7216 79.76ZM101.124 95H95.9397L99.1797 79.76H104.388L101.124 95ZM114.352 88.424C114.832 88.424 115.232 88.224 115.552 87.824C115.888 87.424 116.16 86.936 116.368 86.36C116.592 85.784 116.752 85.184 116.848 84.56C116.944 83.936 116.992 83.392 116.992 82.928C116.992 82.496 116.92 82.136 116.776 81.848C116.632 81.544 116.32 81.392 115.84 81.392H114.76L113.248 88.424H114.352ZM112.912 89.96L111.832 95H106.648L109.888 79.76H115.432C116.344 79.76 117.176 79.808 117.928 79.904C118.68 80 119.328 80.192 119.872 80.48C120.416 80.768 120.84 81.184 121.144 81.728C121.448 82.256 121.6 82.968 121.6 83.864C121.6 84.696 121.464 85.488 121.192 86.24C120.936 86.976 120.512 87.624 119.92 88.184C119.344 88.728 118.592 89.16 117.664 89.48C116.736 89.8 115.608 89.96 114.28 89.96H112.912ZM133.374 84.176C133.422 83.936 133.446 83.608 133.446 83.192C133.446 82.952 133.43 82.72 133.398 82.496C133.366 82.256 133.31 82.048 133.23 81.872C133.15 81.68 133.03 81.536 132.87 81.44C132.71 81.328 132.502 81.272 132.246 81.272C131.958 81.272 131.694 81.336 131.454 81.464C131.214 81.592 130.998 81.76 130.806 81.968C130.63 82.16 130.486 82.392 130.374 82.664C130.278 82.92 130.23 83.192 130.23 83.48C130.23 83.896 130.334 84.216 130.542 84.44C130.766 84.664 131.054 84.848 131.406 84.992C131.758 85.136 132.158 85.256 132.606 85.352C133.054 85.448 133.518 85.56 133.998 85.688C134.398 85.8 134.798 85.944 135.198 86.12C135.598 86.296 135.95 86.536 136.254 86.84C136.574 87.128 136.83 87.512 137.022 87.992C137.214 88.456 137.31 89.04 137.31 89.744C137.31 90.752 137.11 91.6 136.71 92.288C136.31 92.976 135.758 93.536 135.054 93.968C134.35 94.4 133.51 94.712 132.534 94.904C131.574 95.096 130.526 95.192 129.39 95.192C128.238 95.192 127.294 95.12 126.558 94.976C125.838 94.816 125.27 94.648 124.854 94.472C124.358 94.264 123.99 94.024 123.75 93.752L124.566 90.464H128.79C128.774 90.608 128.758 90.808 128.742 91.064C128.726 91.304 128.718 91.496 128.718 91.64C128.718 91.832 128.742 92.032 128.79 92.24C128.838 92.448 128.91 92.64 129.006 92.816C129.118 92.992 129.27 93.136 129.462 93.248C129.654 93.36 129.894 93.416 130.182 93.416C130.502 93.416 130.782 93.344 131.022 93.2C131.278 93.056 131.486 92.88 131.646 92.672C131.822 92.448 131.95 92.208 132.03 91.952C132.126 91.68 132.174 91.416 132.174 91.16C132.174 90.808 132.086 90.512 131.91 90.272C131.75 90.032 131.526 89.832 131.238 89.672C130.95 89.496 130.614 89.352 130.23 89.24C129.862 89.112 129.478 88.984 129.078 88.856C128.694 88.744 128.286 88.608 127.854 88.448C127.438 88.288 127.054 88.064 126.702 87.776C126.35 87.488 126.054 87.128 125.814 86.696C125.59 86.248 125.478 85.68 125.478 84.992C125.478 83.968 125.734 83.112 126.246 82.424C126.774 81.72 127.43 81.152 128.214 80.72C129.014 80.288 129.886 79.984 130.83 79.808C131.774 79.616 132.67 79.52 133.518 79.52C134.638 79.52 135.598 79.656 136.398 79.928C137.214 80.184 137.83 80.488 138.246 80.84L137.358 84.176H133.374ZM155.266 81.584H151.402L148.546 95H143.362L146.218 81.584H142.402L142.834 79.76H155.674L155.266 81.584ZM160.082 79.76H170.187L169.802 81.584H164.906L163.898 86.216H168.002L167.618 88.016H163.514L162.41 93.152H167.306L166.946 95H156.842L160.082 79.76ZM186.745 83.384C186.745 84.328 186.481 85.2 185.953 86C185.425 86.8 184.553 87.408 183.337 87.824L186.121 95H180.769L178.657 88.352H178.393L176.977 95H171.793L175.033 79.76H181.345C182.081 79.76 182.777 79.808 183.433 79.904C184.089 79.984 184.657 80.16 185.137 80.432C185.633 80.688 186.025 81.056 186.313 81.536C186.601 82 186.745 82.616 186.745 83.384ZM179.833 86.816C180.249 86.816 180.601 86.68 180.889 86.408C181.193 86.12 181.433 85.776 181.609 85.376C181.801 84.976 181.937 84.552 182.017 84.104C182.097 83.64 182.137 83.24 182.137 82.904C182.137 82.488 182.065 82.136 181.921 81.848C181.777 81.544 181.465 81.392 180.985 81.392H179.905L178.705 86.816H179.833Z" fill="#FFC722"/>
</svg>
