<svg width="40" height="40" viewBox="0 0 40 40" fill="none" xmlns="http://www.w3.org/2000/svg">
<g clip-path="url(#clip0_564_2389)">
<path d="M0 20C0 8.95431 8.95431 0 20 0C31.0457 0 40 8.95431 40 20C40 31.0457 31.0457 40 20 40C8.95431 40 0 31.0457 0 20Z" fill="#1D2020"/>
<rect x="0.5" y="0.5" width="39" height="39" rx="19.5" stroke="url(#paint0_linear_564_2389)"/>
<g clip-path="url(#clip1_564_2389)">
<path d="M6.89968 17.082C7.1068 16.5743 7.31392 15.9652 7.52104 15.4575L6.17476 12.9193C5.86408 12.3101 5.96764 11.4979 6.48544 10.9902L8.97087 8.55353C9.48867 8.04588 10.3172 7.94435 10.9385 8.24894L13.6311 9.67035C14.1489 9.36576 14.6667 9.1627 15.288 9.06117L16.2201 6.21835C16.3236 5.50765 16.945 5 17.6699 5H21.1909C21.9159 5 22.5372 5.50765 22.7443 6.11682L23.6764 8.95964L25.2298 9.56882L27.9223 8.14741C28.5437 7.84282 29.3722 7.94435 29.89 8.452L32.3754 10.8887C32.8932 11.3963 32.9968 12.2086 32.6861 12.8178L31.2362 15.4575L31.8576 16.9805L34.7573 17.8942C35.4822 18.0973 36 18.808 36 19.5187V22.9707C36 23.6814 35.4822 24.2906 34.8608 24.4936L31.8576 25.4074L31.2362 26.9303L32.6861 29.5701C32.9968 30.1793 32.8932 30.9915 32.3754 31.4991L29.89 33.9358C29.3722 34.4435 28.5437 34.545 27.9223 34.2404L25.2298 32.819M25.2298 30.4838L28.6472 32.3114L30.7184 30.2808L28.8544 26.9303L29.165 26.4227L30.0971 24.2906L30.2006 23.7829L33.9288 22.6661V19.8233L30.2006 18.7065L30.0971 18.1988C29.89 17.4881 29.5793 16.7774 29.165 16.0667L28.8544 15.559L30.7184 12.2086L28.6472 10.178L25.2298 12.0055L24.712 11.7009C23.9871 11.2948 23.2621 10.9902 22.5372 10.7872L22.0194 10.5841L20.8803 7.03059H17.9806L16.8414 10.5841L16.3236 10.7872C15.4951 10.9902 14.7702 11.2948 14.0453 11.7009L13.5275 12.0055L10.2136 10.178L8.14239 12.2086L9.90291 15.559L9.59223 16.0667" stroke="url(#paint1_linear_564_2389)"/>
<path d="M28.4787 19.8593C27.9687 17.6691 26.7353 15.7147 24.9778 14.3118C23.2203 12.9089 21.0412 12.1393 18.7925 12.1274C16.5437 12.1154 14.3566 12.8617 12.5843 14.2459C10.8119 15.63 9.55783 17.5711 9.02453 19.7557L10.1903 20.0403C10.6596 18.1178 11.7632 16.4097 13.3229 15.1916C14.8825 13.9736 16.8072 13.3168 18.7861 13.3274C20.765 13.3379 22.6826 14.0151 24.2292 15.2497C25.7758 16.4842 26.8611 18.2041 27.31 20.1314L28.4787 19.8593Z" fill="url(#paint2_linear_564_2389)"/>
<path d="M17.688 20.256L21.64 15.824H23.448L19.864 19.712L22.296 26H18.808L17.4 21.536L16.456 26H13L15.16 15.84H18.632L17.688 20.256Z" fill="url(#paint3_linear_564_2389)"/>
<path d="M22.62 21.38H25.224L23.808 27.992H26.244L26.04 29H21L22.62 21.38Z" fill="url(#paint4_linear_564_2389)"/>
</g>
<path d="M11.0611 31.6786L24.0873 30.2672L9.1717 30L1.07413 30.7377H-3.78441H-13L-7.56327 31.4061C-1.51987 32.1075 4.57803 32.2103 10.6416 31.713L11.0611 31.6786Z" fill="url(#paint5_linear_564_2389)"/>
</g>
<defs>
<linearGradient id="paint0_linear_564_2389" x1="0" y1="20" x2="40" y2="20" gradientUnits="userSpaceOnUse">
<stop offset="0.22" stop-color="white"/>
<stop offset="1" stop-color="#FFC722"/>
</linearGradient>
<linearGradient id="paint1_linear_564_2389" x1="6" y1="19.7059" x2="36" y2="19.7059" gradientUnits="userSpaceOnUse">
<stop offset="0.22" stop-color="white"/>
<stop offset="1" stop-color="#FFC722"/>
</linearGradient>
<linearGradient id="paint2_linear_564_2389" x1="8.96715" y1="20.0045" x2="28.5114" y2="24.2499" gradientUnits="userSpaceOnUse">
<stop offset="0.22" stop-color="white"/>
<stop offset="1" stop-color="#FFC722"/>
</linearGradient>
<linearGradient id="paint3_linear_564_2389" x1="13" y1="20" x2="23" y2="20" gradientUnits="userSpaceOnUse">
<stop offset="0.22" stop-color="white"/>
<stop offset="1" stop-color="#FFC722"/>
</linearGradient>
<linearGradient id="paint4_linear_564_2389" x1="21" y1="24.5" x2="27" y2="24.5" gradientUnits="userSpaceOnUse">
<stop offset="0.22" stop-color="white"/>
<stop offset="1" stop-color="#FFC722"/>
</linearGradient>
<linearGradient id="paint5_linear_564_2389" x1="-13" y1="31.2303" x2="24.0873" y2="31.2303" gradientUnits="userSpaceOnUse">
<stop offset="0.22" stop-color="white"/>
<stop offset="1" stop-color="#FFC722"/>
</linearGradient>
<clipPath id="clip0_564_2389">
<path d="M0 20C0 8.95431 8.95431 0 20 0C31.0457 0 40 8.95431 40 20C40 31.0457 31.0457 40 20 40C8.95431 40 0 31.0457 0 20Z" fill="white"/>
</clipPath>
<clipPath id="clip1_564_2389">
<rect width="32" height="32" fill="white" transform="translate(4 4)"/>
</clipPath>
</defs>
</svg>
